<svg xmlns="http://www.w3.org/2000/svg" viewBox="0 0 2999 2538" width="2999" height="2538"><g transform="translate(881.5384615384614 2367.6923076923076) rotate(0.0 964.6153846153845 -1038.4615384615386) scale(4.637072358112149 -4.644936735101495)"><svg width="416.045" height="447.137" viewBox="0 0 416.045 447.137"><g fill="#1b57b8"><path d="M.75 401.752a.75.75 0 0 1 0-1.5c128.779 0 233.548-104.77 233.548-233.548 0-62.531-24.393-121.279-68.684-165.422a.751.751 0 0 1 1.059-1.063c44.576 44.427 69.125 103.552 69.125 166.484s-24.449 121.81-68.844 166.204C122.56 377.302 63.534 401.752.75 401.752zm300.745-143.404a.75.75 0 0 1-.71-.991 281.806 281.806 0 0 0 14.01-68.713.754.754 0 0 1 .806-.69.749.749 0 0 1 .69.805 283.38 283.38 0 0 1-14.085 69.079.75.75 0 0 1-.71.51zM260.99 54.996a.751.751 0 0 1-.689-.452 282.59 282.59 0 0 0-19.187-36.678.75.75 0 0 1 1.275-.791 284.228 284.228 0 0 1 19.289 36.874.749.749 0 0 1-.688 1.048z"/><path d="M192.9 83.153a.75.75 0 0 1-.687-.448c-13.992-31.847-35.98-59.981-63.588-81.362a.749.749 0 1 1 .918-1.186c27.806 21.533 49.951 49.869 64.043 81.944a.749.749 0 0 1-.686 1.051zm153.763 160.372a.751.751 0 0 1-.73-.927 320.171 320.171 0 0 0 9.034-75.893.75.75 0 1 1 1.499-.002 321.706 321.706 0 0 1-9.076 76.25.75.75 0 0 1-.729.573zm4.963-126.996a.75.75 0 0 1-.74-.632c-3.882-24.292-10.5-48.059-19.672-70.639a.75.75 0 1 1 1.39-.564c9.214 22.686 15.864 46.563 19.764 70.967a.75.75 0 0 1-.742.868z"/><path d="M331.909 45.726a.749.749 0 0 1-.695-.468 320.506 320.506 0 0 0-22.027-44.122.75.75 0 0 1 1.286-.772 322.097 322.097 0 0 1 22.13 44.329.75.75 0 0 1-.695 1.032zm39.837 58.595a.75.75 0 0 1-.736-.613 342.265 342.265 0 0 0-17.099-60.53.748.748 0 1 1 1.399-.539 343.716 343.716 0 0 1 17.174 60.795.749.749 0 0 1-.739.887zm-137.5 342.816a.75.75 0 0 1-.439-1.359c89.518-64.54 142.961-168.867 142.961-279.076 0-12.925-.726-25.952-2.156-38.719a.75.75 0 0 1 .662-.829.745.745 0 0 1 .829.662 350.517 350.517 0 0 1 2.166 38.886c0 55.647-13.548 110.943-39.179 159.911-24.809 47.397-60.912 89.024-104.406 120.382a.743.743 0 0 1-.438.142zM378.38 71.327a.749.749 0 0 1-.722-.549 356.349 356.349 0 0 0-19.371-52.997.75.75 0 1 1 1.363-.625 357.87 357.87 0 0 1 19.453 53.22.75.75 0 0 1-.723.95zm13.035 96.126a.75.75 0 0 1-.75-.75c0-14.181-.838-28.463-2.492-42.451a.75.75 0 1 1 1.49-.176 364.338 364.338 0 0 1 2.503 42.626.75.75 0 0 1-.75.75z"/></g><path d="M200.932 113.422h60.058v18.823h-60.058z" fill="#fff"/><path d="M260.989 132.996h-60.058a.75.75 0 0 1-.75-.75v-18.823a.75.75 0 0 1 .75-.75h60.058a.75.75 0 0 1 .75.75v18.823a.75.75 0 0 1-.75.75zm-59.308-1.5h58.558v-17.323h-58.558zm105.625-75.671h108.739v28.863H307.306zm-51.679 98.689h-43.706a.75.75 0 0 1 0-1.5h43.706a.75.75 0 0 1 0 1.5zm149.175 57.808h-72.126a.75.75 0 0 1 0-1.5h72.126a.75.75 0 0 1 0 1.5zm-8.222 8.998h-31.693a.75.75 0 0 1 0-1.5h31.693a.75.75 0 0 1 0 1.5z" fill="#1b57b8"/></svg></g><g transform="translate(189.23076923076923 632.3076923076923) rotate(0.0 897.6923076923076 853.8461538461538) scale(4.618851722590261 4.623782403966955)"><svg width="388.708" height="369.328" viewBox="0 0 388.708 369.328"><path d="M219.442 200.817 93.455 237.354c-38.418 11.141-78.5-11.416-88.913-50.038l-1.31-4.858c-10.416-38.636 12.916-78.295 51.747-87.959L182.276 62.82c37.778-9.401 76.132 13.162 86.266 50.751 10.137 37.603-11.696 76.399-49.1 87.246z" fill="#fff"/><path d="M73.427 240.971c-12.234 0-24.323-3.144-35.298-9.321-17.037-9.588-29.222-25.263-34.311-44.139l-1.31-4.858c-5.09-18.882-2.433-38.563 7.483-55.419 9.917-16.856 25.829-28.74 44.807-33.463l127.296-31.679c18.463-4.594 37.662-1.812 54.061 7.836 16.398 9.647 28.157 25.078 33.11 43.448 4.954 18.377 2.542 37.633-6.792 54.219-9.334 16.587-24.542 28.641-42.822 33.942L93.664 238.074a72.569 72.569 0 0 1-20.237 2.897zM199.64 61.431c-5.728 0-11.49.7-17.183 2.117L55.161 95.227c-18.583 4.625-34.166 16.262-43.876 32.767-9.71 16.506-12.313 35.778-7.328 54.268l1.31 4.858c4.983 18.483 16.915 33.833 33.598 43.222 16.682 9.389 35.996 11.622 54.381 6.291l125.987-36.537.209.72-.209-.72c17.9-5.191 32.792-16.995 41.933-33.237s11.503-35.098 6.651-53.093c-4.85-17.989-16.364-33.099-32.422-42.546-11.001-6.472-23.292-9.789-35.755-9.789z" fill="#1b57b8"/><path d="M122.192 261.966c10.667-21.874 94.859-43.577 113.056-16.051s14.946 64.289-6.247 96.191c-23.021 34.654-45.53 35.17-80.317 2.217-24.221-22.943-35.583-63.715-26.492-82.357z" fill="#fff"/><path d="M192.482 369.328c-12.594 0-26.79-7.86-44.313-24.46-23.211-21.987-36.412-63.213-26.651-83.23 6.463-13.254 40.382-27.155 71.163-29.165 21.374-1.398 36.716 3.231 43.193 13.029 17.907 27.087 15.513 64.263-6.248 97.02-11.167 16.81-21.908 25.268-33.803 26.618-1.1.125-2.215.188-3.341.188zm-70.29-107.362.674.329c-8.542 17.517 1.299 57.77 26.333 81.484 18.745 17.756 33.509 25.348 46.454 23.87 11.422-1.297 21.82-9.545 32.723-25.958 21.421-32.246 23.814-68.787 6.246-95.362-6.168-9.329-21.025-13.715-41.844-12.359-30.326 1.98-63.648 15.48-69.912 28.325z" fill="#1b57b8"/><path d="M291.135 157.409c-4.404 20.519-22.771 52.873-37.69 63.965-10.389 7.724 1.47 14.736 24.278 7.663 33.855-10.499 55.702-38.473 56.476-58.324.918-23.517-39.009-32.2-43.064-13.304z" fill="#fff"/><path d="M260.87 232.724c-6.242 0-10.28-1.643-11.541-4.127-.702-1.382-1.159-4.236 3.669-7.826 14.274-10.612 32.802-42.076 37.404-63.52 1.673-7.794 9.544-11.977 20.061-10.653 12.267 1.544 25.018 10.53 24.487 24.143-.785 20.122-22.802 48.405-57.003 59.011-6.729 2.087-12.497 2.972-17.077 2.972zm46.046-84.849c-6.566 0-13.498 2.468-15.048 9.691-4.662 21.723-23.473 53.626-37.976 64.409-2.881 2.142-4.057 4.308-3.227 5.942 1.589 3.129 10.966 5.323 26.835.402 33.576-10.412 55.184-38.025 55.949-57.637.496-12.72-11.57-21.136-23.175-22.596a27.148 27.148 0 0 0-3.358-.211zm-15.781 9.534h.01z" fill="#1b57b8"/><path d="m328.534 124.788-1.953-1.409c-9.444-6.814-11.577-19.995-4.762-29.439l1.409-1.953c6.814-9.444 19.995-11.577 29.439-4.762l1.953 1.409c9.444 6.814 11.577 19.995 4.762 29.439l-1.409 1.953c-6.814 9.444-19.994 11.577-29.439 4.762z" fill="#fff"/><path d="M340.826 129.53c-4.548 0-8.97-1.419-12.731-4.133l-1.953-1.409c-9.765-7.045-11.977-20.721-4.932-30.486l1.409-1.953a21.698 21.698 0 0 1 14.222-8.78 21.688 21.688 0 0 1 16.265 3.848l1.953 1.409a21.696 21.696 0 0 1 8.78 14.222 21.703 21.703 0 0 1-3.848 16.265l-1.409 1.953a21.696 21.696 0 0 1-14.222 8.78c-1.18.189-2.362.284-3.534.284zm-11.853-5.35a20.192 20.192 0 0 0 15.147 3.583 20.2 20.2 0 0 0 13.245-8.177l1.409-1.953c3.179-4.405 4.452-9.785 3.584-15.147s-3.771-10.066-8.177-13.244l-1.953-1.409a20.206 20.206 0 0 0-15.147-3.584 20.207 20.207 0 0 0-13.245 8.177l-1.409 1.953c-6.562 9.094-4.501 21.831 4.593 28.392z" fill="#1b57b8"/><path d="M320.324 87.536c.827-3.997 12.34-30.947 5.16-78.695-1.923-12.789 10.969-8.688 12.864.379 3.048 14.585 5.614 62.882-3.48 76.903-9.095 14.021-16.554 11.128-14.544 1.413z" fill="#fff"/><path d="M323.733 96.502a4.26 4.26 0 0 1-1.628-.314c-2.466-1.013-3.43-4.386-2.516-8.804.108-.523.361-1.329.743-2.549 2.644-8.438 10.69-34.119 4.41-75.882C323.661 1.766 327.08.355 328.6.082c3.831-.688 9.249 3.086 10.482 8.985 3.279 15.692 5.409 63.598-3.585 77.465-4.154 6.403-8.413 9.97-11.764 9.97zm5.831-95.005c-.24 0-.473.02-.699.061-2.301.413-3.263 3.027-2.64 7.171 6.331 42.105-1.792 68.033-4.462 76.554-.355 1.135-.612 1.955-.706 2.404-.747 3.611-.112 6.403 1.617 7.113 2.068.847 6.333-1.023 11.563-9.086 3.846-5.929 6.038-19.367 6.173-37.837.116-15.934-1.319-31.431-2.798-38.504-.97-4.647-4.992-7.876-8.048-7.876zm-9.24 86.039h.01z" fill="#1b57b8"/><path d="M353.039 45.725c-6.821 9.474-14.761 28.65-16.042 37.642s4.514 13.939 14.021-1.137c8.842-14.021 12.108-22.439 14.905-30.063 3.469-9.454-8.114-13.066-12.884-6.442z" fill="#fff"/><path d="M340.548 92.626c-.51 0-.942-.094-1.296-.224-2.482-.912-3.659-4.5-2.998-9.142 1.364-9.576 9.528-28.741 16.176-37.975 2.923-4.059 7.912-4.442 11.125-2.735 2.709 1.438 4.939 4.787 3.073 9.875-2.986 8.139-6.378 16.573-14.975 30.205-5.189 8.229-8.887 9.996-11.105 9.996zm13.1-46.462c-6.989 9.706-14.717 28.948-15.908 37.31-.549 3.852.267 6.875 2.029 7.522.922.338 4.408.676 10.615-9.165 8.518-13.508 11.878-21.861 14.835-29.921 1.303-3.552.418-6.555-2.368-8.033-2.649-1.407-6.776-1.085-9.203 2.287z" fill="#1b57b8"/><path d="M372.102 58.469c-9.251 7.12-20.983 21.411-24.788 29.657-3.806 8.247.327 14.648 13.758 2.932 12.492-10.897 16.659-16.221 21.526-22.723 6.034-8.062-4.028-14.844-10.496-9.866z" fill="#fff"/><path d="M349.472 98.209c-1.211 0-2.041-.369-2.589-.78-2.116-1.585-2.214-5.36-.25-9.617 4.003-8.674 15.924-22.943 25.012-29.938 3.965-3.052 8.854-1.984 11.442.569 2.184 2.154 3.359 6.002.112 10.34-5.167 6.904-9.464 12.224-21.633 22.839-5.953 5.193-9.742 6.587-12.094 6.587zm23.087-39.146c-8.935 6.876-20.643 20.879-24.564 29.378-1.63 3.532-1.716 6.662-.213 7.788.785.588 4.028 1.914 12.797-5.736 12.057-10.518 16.309-15.78 21.418-22.607 2.267-3.029 2.281-6.159.036-8.374-2.136-2.107-6.183-2.981-9.474-.449z" fill="#1b57b8"/><path d="M376.636 78.348c-9.207 6.265-14.915 10.932-21.373 18.449-5.918 6.89.154 12.866 8.315 8.172 7.846-4.513 15.749-9.523 21.674-15.077 7.347-6.887-1.867-16.136-8.616-11.544z" fill="#fff"/><path d="M358.062 107.393c-2.13 0-3.799-.809-4.786-2-1.515-1.83-1.938-5.178 1.418-9.085 6.841-7.964 12.841-12.674 21.52-18.581 3.914-2.663 8.468-1.051 10.766 1.818 2.058 2.57 2.975 6.965-1.216 10.894-6.446 6.043-15.043 11.287-21.812 15.18-2.183 1.256-4.184 1.774-5.89 1.774zm18.996-28.425c-8.572 5.833-14.494 10.48-21.226 18.318-2.299 2.677-2.836 5.417-1.4 7.151 1.376 1.662 4.623 2.27 8.772-.117 6.699-3.853 15.201-9.037 21.535-14.975 3.44-3.224 2.809-6.692 1.071-8.861-1.878-2.344-5.583-3.674-8.752-1.516zm-130.423-.552c-17.023-14.888-40.802-21.458-64.359-15.596L54.98 94.499a71.647 71.647 0 0 0-15.392 5.786c-14.962 12.707-22.62 35.681-10.76 60.604 13.691 28.769 36.005 31.108 70.295 18.134 32.617-12.341 103.351-30.533 132.009-35.723 25.32-4.587 33.508-44.887 15.503-64.884z" fill="#1b57b8"/><path d="M65.596 187.329c-3.384 0-6.539-.331-9.507-.987-12.016-2.656-21.155-10.876-27.938-25.131-13.057-27.437-2.261-50.276 10.952-61.498a.813.813 0 0 1 .143-.096 72.613 72.613 0 0 1 15.553-5.846l127.296-31.679c22.92-5.703 47.231.188 65.034 15.759.022.02.044.041.063.062 9.647 10.715 12.578 28.305 7.292 43.772-4.201 12.292-12.664 20.439-23.219 22.351-28.453 5.154-98.854 23.192-131.877 35.688-13.506 5.11-24.505 7.605-33.792 7.605zm-25.589-86.416c-16.811 14.329-20.934 37.733-10.502 59.653 12.602 26.481 32.696 31.626 69.352 17.755 33.095-12.522 103.635-30.597 132.141-35.76 10.004-1.812 18.047-9.598 22.067-21.36 5.11-14.953 2.313-31.924-6.958-42.25-17.431-15.225-41.222-20.982-63.65-15.402L55.161 95.227a71.04 71.04 0 0 0-15.154 5.686z" fill="#1b57b8"/><ellipse cx="114.453" cy="124.986" fill="#52fffe" rx="13.263" ry="22.358" transform="matrix(.9996 -.0297 .0297 .9996 -3.6562 3.4492)"/><ellipse cx="171.912" cy="109.149" fill="#52fffe" rx="13.263" ry="22.358" transform="matrix(.8819 -.4713 .4713 .8819 -31.1523 93.9155)"/><path d="M231.816 248.699c-1.149-4.049-3.331-7.722-6.179-10.877-20.779-10.245-61.445-2.847-85.48 9.352 11.166 2.287 19.269 7.799 25.893 12.776 22.708 17.062 37.758 31.408 48.907 29.059 11.149-2.348 21.454-24.121 16.859-40.31z" fill="#1b57b8"/><path d="M212.479 290.011c-8.899 0-19.905-8.572-34.62-20.032-3.885-3.025-7.901-6.154-12.261-9.429-6.549-4.921-14.467-10.362-25.592-12.641a.752.752 0 0 1-.189-1.404c25.016-12.697 65.603-19.486 86.15-9.355.085.042.162.1.225.17 3.07 3.401 5.205 7.161 6.344 11.174 2.617 9.219.643 21.245-5.03 30.637-3.57 5.911-7.972 9.68-12.396 10.611-.855.182-1.733.269-2.631.269zm-70.099-43.102c9.859 2.444 17.412 7.402 24.12 12.442 4.369 3.283 8.391 6.416 12.281 9.445 15.881 12.369 27.36 21.31 36.021 19.48 3.955-.833 8.118-4.448 11.422-9.919 5.467-9.053 7.379-20.614 4.87-29.453-1.063-3.749-3.055-7.271-5.918-10.472-16-7.783-52.633-6.145-82.796 8.477z" fill="#1b57b8"/><path d="M353.039 45.725c-6.821 9.474-14.761 28.65-16.042 37.642s4.514 13.939 14.021-1.137c8.842-14.021 12.108-22.439 14.905-30.063 3.469-9.454-8.114-13.066-12.884-6.442z" fill="#fff"/><path d="M340.548 92.626c-.51 0-.942-.094-1.296-.224-2.482-.912-3.659-4.5-2.998-9.142 1.364-9.576 9.528-28.741 16.176-37.975 2.923-4.059 7.912-4.442 11.125-2.735 2.709 1.438 4.939 4.787 3.073 9.875-2.986 8.139-6.378 16.573-14.975 30.205-5.189 8.229-8.887 9.996-11.105 9.996zm13.1-46.462c-6.989 9.706-14.717 28.948-15.908 37.31-.549 3.852.267 6.875 2.029 7.522.922.338 4.408.676 10.615-9.165 8.518-13.508 11.878-21.861 14.835-29.921 1.303-3.552.418-6.555-2.368-8.033-2.649-1.407-6.776-1.085-9.203 2.287z" fill="#1b57b8"/><path d="M372.102 58.469c-9.251 7.12-20.983 21.411-24.788 29.657-3.806 8.247.327 14.648 13.758 2.932 12.492-10.897 16.659-16.221 21.526-22.723 6.034-8.062-4.028-14.844-10.496-9.866z" fill="#fff"/><path d="M349.472 98.209c-1.211 0-2.041-.369-2.589-.78-2.116-1.585-2.214-5.36-.25-9.617 4.003-8.674 15.924-22.943 25.012-29.938 3.965-3.052 8.854-1.984 11.442.569 2.184 2.154 3.359 6.002.112 10.34-5.167 6.904-9.464 12.224-21.633 22.839-5.953 5.193-9.742 6.587-12.094 6.587zm23.087-39.146c-8.935 6.876-20.643 20.879-24.564 29.378-1.63 3.532-1.716 6.662-.213 7.788.785.588 4.028 1.914 12.797-5.736 12.057-10.518 16.309-15.78 21.418-22.607 2.267-3.029 2.281-6.159.036-8.374-2.136-2.107-6.183-2.981-9.474-.449z" fill="#1b57b8"/><path d="M358.062 107.393c-2.13 0-3.799-.809-4.786-2-1.515-1.83-1.938-5.178 1.418-9.085 6.841-7.964 12.841-12.674 21.52-18.581 3.914-2.663 8.468-1.051 10.766 1.818 2.058 2.57 2.975 6.965-1.216 10.894-6.446 6.043-15.043 11.287-21.812 15.18-2.183 1.256-4.184 1.774-5.89 1.774zm18.996-28.425c-8.572 5.833-14.494 10.48-21.226 18.318-2.299 2.677-2.836 5.417-1.4 7.151 1.376 1.662 4.623 2.27 8.772-.117 6.699-3.853 15.201-9.037 21.535-14.975 3.44-3.224 2.809-6.692 1.071-8.861-1.878-2.344-5.583-3.674-8.752-1.516z" fill="#1b57b8"/><path d="M319.994 122.778c-5.24-3.924-15.586-16.136-15.586-22.985 0-7.913 20.862-20.468 29.811-23.752 6.217-2.282 7.878 6.747 3.756 12.866-2.332 3.462-10.871 9.16-16.126 10.886 4.538 3.028 12.511 9.233 11.864 16.669-.505 5.81-8.997 9.853-13.719 6.316z" fill="#fff"/><g fill="#1b57b8"><path d="M324.244 124.845c-1.757 0-3.401-.493-4.701-1.467-5.455-4.085-15.886-16.449-15.886-23.585 0-8.297 21.046-21.059 30.302-24.456 2.284-.839 4.263-.379 5.573 1.292 2.259 2.881 1.839 8.577-.937 12.697-2.182 3.239-9.665 8.446-15.129 10.667 7.67 5.41 11.464 11.107 10.993 16.533-.264 3.033-2.515 5.851-5.876 7.354-1.439.645-2.926.965-4.339.965zm-3.801-2.667c1.908 1.429 4.793 1.557 7.528.334 2.864-1.281 4.778-3.625 4.995-6.115.562-6.473-5.961-12.263-11.534-15.98a.75.75 0 0 1 .182-1.337c5.162-1.695 13.545-7.338 15.738-10.592 2.646-3.928 2.653-8.825 1-10.934-.901-1.149-2.203-1.421-3.876-.809-4.011 1.472-11.38 5.244-18.083 10.046-7.246 5.191-11.236 9.809-11.236 13.002.001 6.427 9.917 18.364 15.286 22.385zm20.606-83.855c-.357-12.179-1.49-23.306-2.701-29.103-1.895-9.067-14.787-13.168-12.864-.379 1.729 11.494 2.366 21.771 2.338 30.824 4.04-3.602 9.409-4.441 13.227-1.342z"/><path d="M327.822 40.415a.751.751 0 0 1-.75-.753c.031-9.891-.753-20.224-2.33-30.711C323.661 1.764 327.08.353 328.6.08c3.837-.688 9.249 3.086 10.482 8.985 1.313 6.286 2.38 17.761 2.716 29.234a.749.749 0 0 1-1.222.604c-3.373-2.738-8.297-2.208-12.255 1.32a.74.74 0 0 1-.499.192zm1.742-38.918c-.24 0-.473.02-.699.06-2.301.413-3.263 3.027-2.64 7.172 1.505 10.01 2.293 19.883 2.345 29.373 3.809-2.752 8.216-3.212 11.682-1.232-.378-10.89-1.397-21.558-2.639-27.497-.971-4.647-4.993-7.876-8.049-7.876zm20.867 64.87a10.295 10.295 0 0 0-8.014-.383c-2.74 6.668-4.818 13.153-5.42 17.383-1.281 8.992 4.514 13.939 14.021-1.137a196.813 196.813 0 0 0 5.077-8.496c-.598-3.103-2.596-5.895-5.664-7.367z"/><path d="M340.548 92.626c-.51 0-.942-.094-1.296-.224-2.482-.912-3.659-4.5-2.998-9.142.59-4.139 2.583-10.54 5.469-17.562a.749.749 0 0 1 .437-.419 10.999 10.999 0 0 1 8.595.411c3.188 1.53 5.404 4.41 6.077 7.902a.75.75 0 0 1-.083.51 196.36 196.36 0 0 1-5.097 8.528c-5.188 8.229-8.886 9.996-11.104 9.996zm2.435-26.045c-2.772 6.789-4.679 12.931-5.243 16.892-.549 3.852.267 6.875 2.029 7.522.922.338 4.408.676 10.615-9.165 1.79-2.838 3.401-5.53 4.92-8.22-.641-2.901-2.523-5.285-5.198-6.568a9.49 9.49 0 0 0-7.123-.461z"/><path d="M356.406 74.424c-4.01 4.989-7.368 9.966-9.093 13.702-3.806 8.247.327 14.648 13.758 2.932a242.141 242.141 0 0 0 6.538-5.898c.634-3.01-.256-6.267-2.656-8.534-2.366-2.236-5.61-2.952-8.547-2.202z"/><path d="M349.472 98.209c-1.211 0-2.041-.37-2.589-.78-2.116-1.585-2.214-5.36-.25-9.617 1.696-3.675 4.959-8.596 9.189-13.857a.755.755 0 0 1 .399-.257 9.849 9.849 0 0 1 9.248 2.383c2.517 2.377 3.591 5.829 2.875 9.234a.753.753 0 0 1-.221.392 240.165 240.165 0 0 1-6.558 5.916c-5.953 5.193-9.742 6.586-12.093 6.586zm7.359-23.116c-4.078 5.093-7.212 9.827-8.836 13.348-1.63 3.532-1.716 6.662-.213 7.788.785.587 4.028 1.913 12.797-5.736a243.044 243.044 0 0 0 6.342-5.715 8.329 8.329 0 0 0-2.482-7.607 8.352 8.352 0 0 0-7.608-2.078z"/><path d="M371.266 92.213c-1.726-2.682-4.678-4.088-7.649-3.975-2.876 2.558-5.544 5.288-8.353 8.559-5.918 6.89.154 12.866 8.315 8.172a206.249 206.249 0 0 0 8.574-5.183 8.67 8.67 0 0 0-.887-7.573z"/><path d="M358.062 107.393c-2.13 0-3.799-.808-4.786-2-1.515-1.83-1.938-5.177 1.418-9.084 2.828-3.292 5.504-6.034 8.424-8.63a.755.755 0 0 1 .47-.189c3.322-.127 6.513 1.527 8.309 4.318a9.387 9.387 0 0 1 .964 8.227.752.752 0 0 1-.303.384c-2.548 1.635-5.364 3.336-8.606 5.201-2.183 1.254-4.184 1.773-5.89 1.773zm5.848-18.411c-2.789 2.497-5.361 5.142-8.078 8.304-2.299 2.677-2.836 5.417-1.4 7.15 1.376 1.662 4.623 2.27 8.772-.117a208.328 208.328 0 0 0 8.321-5.021 7.89 7.89 0 0 0-.89-6.68 7.98 7.98 0 0 0-6.688-3.637l-.037.001zm8.243 10.805h.01zm-37.935-23.746c-4.856 1.782-13.217 6.296-19.852 11.315-.281 4.679 1.283 9.828 7.482 12.437 5.255-1.726 13.794-7.424 16.126-10.886 4.123-6.119 2.461-15.148-3.756-12.866z"/><path d="M321.849 100.543a.753.753 0 0 1-.291-.059c-5.492-2.312-8.311-6.991-7.939-13.174a.748.748 0 0 1 .296-.553c6.85-5.182 15.269-9.667 20.046-11.42l.258.704-.258-.704c2.282-.838 4.262-.379 5.573 1.292 2.259 2.881 1.839 8.578-.937 12.698-2.373 3.523-11.016 9.374-16.514 11.179a.748.748 0 0 1-.234.037zm-6.751-12.799c-.15 3.792.961 8.669 6.783 11.247 5.179-1.796 13.316-7.303 15.471-10.502 2.646-3.928 2.653-8.825 1-10.934-.901-1.15-2.206-1.422-3.875-.809-4.608 1.69-12.698 5.994-19.379 10.998z"/></g></svg></g><g transform="translate(1504.6153846153845 175.38461538461536) rotate(0.0 210.0 184.61538461538458) scale(4.6162469911961574 4.673511413591155)"><svg width="90.983" height="79.005" viewBox="0 0 90.983 79.005"><path d="M85.407 25.155v-8.713h2.413V.75H3.163v77.505H87.82v-53.1z" fill="#73bdfd"/><path d="M87.82 79.005H3.163a.75.75 0 0 1-.75-.75V.75a.75.75 0 0 1 .75-.75H87.82a.75.75 0 0 1 .75.75v15.692a.75.75 0 0 1-.75.75h-1.663v7.212h1.663a.75.75 0 0 1 .75.75v53.101a.75.75 0 0 1-.75.75zm-83.907-1.5H87.07v-51.6h-1.663a.75.75 0 0 1-.75-.75v-8.712a.75.75 0 0 1 .75-.75h1.663V1.5H3.913v76.005z" fill="#1b57b8"/><path d="m79.039 26.386-1.086-.327a.914.914 0 0 1-.651-.876V15.052a3.332 3.332 0 0 0-3.332-3.332H17.013a3.331 3.331 0 0 0-3.331 3.331v10.137a.915.915 0 0 1-.645.874l-1.027.317a1.83 1.83 0 0 0-1.29 1.749v22.749a1.83 1.83 0 0 0 1.29 1.749l1.027.317a.915.915 0 0 1 .645.874v10.136a3.332 3.332 0 0 0 3.332 3.332H73.97a3.332 3.332 0 0 0 3.332-3.332V53.822c0-.404.265-.76.651-.876l1.086-.327a1.831 1.831 0 0 0 1.303-1.753V28.137a1.83 1.83 0 0 0-1.303-1.753z" fill="#52fffe"/><path d="M73.97 68.036H17.014a4.086 4.086 0 0 1-4.082-4.082V53.818a.164.164 0 0 0-.116-.158l-1.027-.317a2.567 2.567 0 0 1-1.818-2.465v-22.75c0-1.138.73-2.129 1.818-2.465l1.027-.317a.164.164 0 0 0 .116-.158V15.052a4.087 4.087 0 0 1 4.082-4.082H73.97a4.086 4.086 0 0 1 4.081 4.082v10.131c0 .073.047.137.117.158l1.087.327a2.565 2.565 0 0 1 1.837 2.471v22.729c0 1.147-.738 2.14-1.837 2.471l-1.087.327a.163.163 0 0 0-.117.158v10.131a4.087 4.087 0 0 1-4.081 4.082zM17.014 12.47a2.585 2.585 0 0 0-2.582 2.582v10.136c0 .735-.472 1.374-1.173 1.591l-1.027.318a1.075 1.075 0 0 0-.762 1.032v22.75c0 .477.306.891.762 1.032l1.027.317a1.658 1.658 0 0 1 1.173 1.591v10.136a2.585 2.585 0 0 0 2.582 2.582H73.97a2.584 2.584 0 0 0 2.581-2.582V53.824c0-.741.477-1.381 1.186-1.594l1.087-.327c.46-.138.769-.554.769-1.034V28.14c0-.48-.309-.896-.769-1.034l-1.087-.327a1.655 1.655 0 0 1-1.186-1.594V15.054a2.585 2.585 0 0 0-2.581-2.582H17.014z" fill="#1b57b8"/><path d="M44.717 48.364H31.534l-3.028 10.209h-5.037l12.566-39.014h4.207l12.594 39.014h-5.037zm-11.896-4.207h10.638l-5.333-17.738zM63.26 58.573h-4.903V19.559h4.903z" fill="#1b57b8"/><path d="M.75 16.827h4.826v45.352H.75z" fill="#52fffe"/><g fill="#1b57b8"><path d="M5.576 62.929H.75a.75.75 0 0 1-.75-.75V16.827a.75.75 0 0 1 .75-.75h4.826a.75.75 0 0 1 .75.75v45.352a.75.75 0 0 1-.75.75zm-4.076-1.5h3.326V17.577H1.5z"/><path d="M5.576 17.577H.75a.75.75 0 0 1 0-1.5h4.826a.75.75 0 0 1 0 1.5zm0 3.779H.75a.75.75 0 0 1 0-1.5h4.826a.75.75 0 0 1 0 1.5zm0 3.779H.75a.75.75 0 0 1 0-1.5h4.826a.75.75 0 0 1 0 1.5zm0 3.779H.75a.75.75 0 1 1 0-1.5h4.826a.75.75 0 0 1 0 1.5zm0 3.78H.75a.75.75 0 0 1 0-1.5h4.826a.75.75 0 0 1 0 1.5zm0 3.779H.75a.75.75 0 0 1 0-1.5h4.826a.75.75 0 0 1 0 1.5zm0 3.779H.75a.75.75 0 0 1 0-1.5h4.826a.75.75 0 0 1 0 1.5zm0 3.78H.75a.75.75 0 0 1 0-1.5h4.826a.75.75 0 0 1 0 1.5zm0 3.779H.75a.75.75 0 0 1 0-1.5h4.826a.75.75 0 0 1 0 1.5zm0 3.78H.75a.75.75 0 0 1 0-1.5h4.826a.75.75 0 0 1 0 1.5zm0 3.779H.75a.75.75 0 0 1 0-1.5h4.826a.75.75 0 0 1 0 1.5zm0 3.779H.75a.75.75 0 0 1 0-1.5h4.826a.75.75 0 0 1 0 1.5zm0 3.78H.75a.75.75 0 0 1 0-1.5h4.826a.75.75 0 0 1 0 1.5z"/></g><path d="M85.407 35.723h4.826v26.455h-4.826z" fill="#52fffe"/><path d="M90.233 62.929h-4.826a.75.75 0 0 1-.75-.75V35.723a.75.75 0 0 1 .75-.75h4.826a.75.75 0 0 1 .75.75v26.456a.75.75 0 0 1-.75.75zm-4.076-1.5h3.326V36.473h-3.326z" fill="#1b57b8"/><path d="M90.233 36.473h-4.826a.75.75 0 0 1 0-1.5h4.826a.75.75 0 0 1 0 1.5zm0 3.779h-4.826a.75.75 0 0 1 0-1.5h4.826a.75.75 0 0 1 0 1.5zm0 3.78h-4.826a.75.75 0 0 1 0-1.5h4.826a.75.75 0 0 1 0 1.5zm0 3.779h-4.826a.75.75 0 0 1 0-1.5h4.826a.75.75 0 0 1 0 1.5zm0 3.78h-4.826a.75.75 0 0 1 0-1.5h4.826a.75.75 0 0 1 0 1.5zm0 3.779h-4.826a.75.75 0 0 1 0-1.5h4.826a.75.75 0 0 1 0 1.5zm0 3.779h-4.826a.75.75 0 0 1 0-1.5h4.826a.75.75 0 0 1 0 1.5zm0 3.78h-4.826a.75.75 0 0 1 0-1.5h4.826a.75.75 0 0 1 0 1.5z" fill="#1b57b8"/></svg></g><g transform="translate(323.07692307692304 133.84615384615384) rotate(0.0 793.8461538461537 1054.6153846153845) scale(4.5913600569471 4.623478231544869)"><svg width="345.8" height="456.2" viewBox="0 0 345.8 456.2"><g><path d="M8.9 288.4c-.1 0-.3 0-.4-.1-3.2-2-6.1-4.7-8.3-7.7-.2-.3-.2-.8.2-1 .3-.2.8-.2 1 .2 2.1 2.9 4.9 5.4 7.9 7.3.4.2.5.7.2 1-.1.2-.4.3-.6.3zm0 8.6c-.2 0-.3 0-.4-.1-2.3-1.6-4.3-3.8-5.9-6.2-.2-.4-.1-.8.2-1 .3-.2.8-.1 1 .2 1.4 2.2 3.3 4.2 5.5 5.8.3.2.4.7.2 1-.1.2-.4.3-.6.3zm126.8 142h-.1c-.4-.1-.7-.5-.6-.9.4-2.3 1.3-4.5 2.7-6.4.2-.3.7-.4 1-.2.3.2.4.7.2 1-1.2 1.7-2.1 3.7-2.4 5.8-.1.4-.5.7-.8.7zm-25.3 17.2c-.3 0-.6-.2-.7-.5l-4-9.6c-.2-.4 0-.8.4-1 .4-.2.8 0 1 .4l4 9.6c.2.4 0 .8-.4 1-.1.1-.2.1-.3.1zm-15.1-5.1c-.3 0-.5-.1-.7-.4-2.7-5.2-4.8-10.7-6.2-16.3-.1-.4.1-.8.6-.9.4-.1.8.1.9.6 1.3 5.5 3.4 10.9 6 16 .2.4.1.8-.3 1h-.3zm215.6-292c-.3 0-.6-.2-.7-.5-.5-1.5-1.8-2.8-3.4-3.2-.4-.1-.6-.5-.5-.9.1-.4.5-.6.9-.5 2.1.5 3.8 2.2 4.5 4.2.1.4-.1.8-.5.9h-.3zm-33.6 116.6c-.2 0-.5-.1-.6-.3-1.3-1.9-3-3.5-5-4.7-.4-.2-.5-.7-.2-1 .2-.4.7-.5 1-.2 2.1 1.3 4 3.1 5.4 5.1.2.3.2.8-.2 1-.1.1-.3.1-.4.1zm-3.7 9.2c-.3 0-.6-.2-.7-.4l-3.1-7c-.2-.4 0-.8.4-1 .4-.2.8 0 1 .4l3.1 7c.2.4 0 .8-.4 1h-.3z" style="fill:#1b57b8"/><path d="M222.6 217.2c-.3 0-.7-.2-.7-.6-.9-4.2-2.6-8.2-5-11.8-.2-.3-.1-.8.2-1 .3-.2.8-.1 1 .2 2.5 3.8 4.2 7.9 5.2 12.4.1.4-.2.8-.6.9 0-.1 0-.1-.1-.1zm-6.6 8.6h-.1c-.4-.1-.7-.5-.6-.9l1-5.1c.1-.4.5-.7.9-.6.4.1.7.5.6.9l-1 5.1c-.1.3-.4.6-.8.6z" style="fill:#73bdfd"/><path d="M303.3 5.6c-.4 0-.7-.3-.7-.7 0-.4.3-.8.7-.8l10.6-.4c.4 0 .8.3.8.7s-.3.8-.7.8l-10.7.4zm23.1-1.4h-.2c-5.6-1.6-11.4-2.5-17.2-2.7-.4 0-.7-.4-.7-.8s.3-.7.7-.7c6 .2 11.9 1.1 17.6 2.8.4.1.6.5.5.9 0 .3-.3.5-.7.5zM345 94.8h-10.6c-.4 0-.8-.3-.8-.8s.3-.8.8-.8H345c.4 0 .8.3.8.8s-.4.8-.8.8z" style="fill:#1b57b8"/></g></svg></g></svg>